<?xml version="1.0" standalone="no"?>
<!-- Generator: Adobe Fireworks 10, Export SVG Extension by Aaron Beall (http://fireworks.abeall.com) . Version: 0.6.1  -->
<!DOCTYPE svg PUBLIC "-//W3C//DTD SVG 1.1//EN" "http://www.w3.org/Graphics/SVG/1.1/DTD/svg11.dtd">
<svg id="logo_source-Page%201" viewBox="0 0 112 112" style="background-color:#ffffff00" version="1.1"
	xmlns="http://www.w3.org/2000/svg" xmlns:xlink="http://www.w3.org/1999/xlink" xml:space="preserve"
	x="0px" y="0px" width="112px" height="112px"
>
	<g id="Layer%201">
		<path id="Ellipse" d="M 0 56 C 0 25.0717 25.0718 0 56 0 C 86.9282 0 112 25.0717 112 56 C 112 86.9283 86.9282 112 56 112 C 25.0718 112 0 86.9283 0 56 Z" fill="#8471b1"/>
		<path d="M 56 27.8149 C 58.2876 27.8149 66.5229 27.6312 71.9216 36.9077 C 73.789 40.1164 74.3007 46.6433 74.1177 49.3069 C 73.9346 51.9704 74.2092 58.3996 74.6667 60.6039 C 75.1242 62.8082 77.0457 68.1353 78.2353 69.6967 C 79.4248 71.2581 83.3595 75.5748 83.7255 76.0341 C 84.0915 76.4933 84.0915 76.4933 83.7255 76.5851 C 83.3595 76.677 52.7059 76.5851 52.7059 76.5851 M 56 27.8147 C 53.7124 27.8147 45.4771 27.6308 40.0784 36.9151 C 38.211 40.1265 37.6993 46.6589 37.8824 49.3247 C 38.0654 51.9905 37.7909 58.4251 37.3333 60.6313 C 36.8758 62.8375 34.9542 68.169 33.7647 69.7317 C 32.5752 71.2944 28.6405 75.6148 28.2745 76.0744 C 27.9085 76.534 27.9085 76.534 28.2745 76.6259 C 28.6405 76.7179 59.2941 76.6259 59.2941 76.6259 " stroke="#ededed" stroke-width="4" fill="#ededed"/>
		<path d="M 46.8897 80.2604 C 47.4002 83.2143 50.8925 85.5 55.125 85.5 C 59.3575 85.5 62.8498 83.2143 63.3603 80.2604 L 46.8897 80.2604 Z" fill="#ededed"/>
		<path d="M 60.2275 24.2798 C 59.9824 22.7126 58.3061 21.5 56.2745 21.5 C 54.2429 21.5 52.5666 22.7126 52.3216 24.2798 L 60.2275 24.2798 Z" fill="#ededed"/>
		<rect x="51.0588" y="27.8147" width="10.1569" height="48.8113" stroke="#ededed" stroke-width="4" fill="#ededed"/>
	</g>
</svg>