<?xml version="1.0" standalone="no"?>
<!DOCTYPE svg PUBLIC "-//W3C//DTD SVG 1.1//EN" "http://www.w3.org/Graphics/SVG/1.1/DTD/svg11.dtd">
<svg xmlns="http://www.w3.org/2000/svg">
<metadata>Generated by Fontastic.me</metadata>
<defs>
<font id="r1-icons" horiz-adv-x="512">
<font-face font-family="r1-icons" units-per-em="512" ascent="480" descent="-32"/>
<missing-glyph horiz-adv-x="512" />

<glyph unicode="&#57344;" d="M281 281l0 121c0 14-11 25-25 25-14 0-25-11-25-25l0-121-121 0c-14 0-25-11-25-25 0-14 11-25 25-25l121 0 0-121c0-14 11-25 25-25 7 0 13 3 17 7 5 5 8 11 8 18l0 121 121 0c7 0 13 3 18 8 4 4 7 10 7 17 0 14-11 25-25 25z"/>
<glyph unicode="&#57345;" d="M371 435c0 13-13 26-25 26l-244 0c-12 0-25-13-25-26l0-307c0-13 14-26 25-26l77 0 0 256 154 0 38-38z m-192-294l-64 0 0 281 218 0 0-64-154 0z m133 250c-4 4-12 6-18 6l-128 0c-12 0-25-13-25-26l0-307c0-13 14-26 25-26l244 0c11 0 25 13 25 26l0 192c0 5-3 17-7 21z m85-135l-103 0 0 102z m-218-179l0 281 77 0 0-115c0-11 14-25 26-25l115 0 0-141z"/>
<glyph unicode="&#57346;" d="M102 296c0-6 3-12 7-17l130-131c5-5 11-7 17-7 6 0 12 2 17 7l130 131c9 9 9 25 0 34-10 9-25 9-34 0l-113-114-113 114c-9 9-24 9-34 0-4-5-7-11-7-17z"/>
<glyph unicode="&#57347;" d="M309 410c-6 0-13-3-17-7l-131-130c-5-5-7-11-7-17 0-6 2-12 7-17l131-130c9-9 24-9 34 0 9 10 9 25 0 34l-114 113 114 113c9 9 9 24 0 34-5 4-11 7-17 7z"/>
<glyph unicode="&#57348;" d="M203 410c6 0 13-3 17-7l131-130c5-5 7-11 7-17 0-6-2-12-7-17l-131-130c-9-9-24-9-34 0-9 10-9 25 0 34l114 113-114 113c-9 9-9 24 0 34 5 4 11 7 17 7z"/>
<glyph unicode="&#57349;" d="M102 203c0 6 3 13 7 17l130 131c5 5 11 7 17 7 6 0 12-2 17-7l130-131c9-9 9-24 0-34-10-9-25-9-34 0l-113 114-113-114c-9-9-24-9-34 0-4 5-7 11-7 17z"/>
<glyph unicode="&#57350;" d="M358 371c5 0 15 0 15 0 13 0 24 9 24 19 0 11-11 20-24 20l-234 0c-13 0-24-9-24-20 0-10 11-19 24-19 0 0 146 0 219 0z m-219-64c-13 0-24-8-24-19 0-11 11-19 24-19l132 0c13 0 23 8 23 19 0 11-10 19-23 19z m-95 97c-4-4-6-9-6-14 0-5 2-10 6-13 4-4 8-6 13-6 5 0 10 2 14 6 3 3 6 8 6 13 0 5-3 10-6 14-4 4-9 6-14 6-5 0-9-2-13-6z m13-97c-5 0-10-2-13-5-4-4-6-9-6-14 0-5 2-10 6-14 3-3 8-5 13-5 5 0 10 2 14 5 3 4 6 9 6 14 0 5-3 10-6 14-4 3-9 5-14 5z m0-102c-5 0-10-2-13-6-4-3-6-8-6-13 0-5 2-10 6-14 3-4 8-6 13-6 5 0 10 2 14 6 3 4 6 9 6 14 0 5-3 10-6 13-4 4-9 6-14 6z m250-38c-13 0-25 10-25 19 0 9 12 19 25 19l51 0 0 51c0 13 6 26 20 26 13 0 19-13 19-26l0-51 51 0c13 0 26-10 26-19 0-9-13-19-26-19l-51 0 0-52c0-13-6-25-19-25-14 0-20 12-20 25l0 52z"/>
<glyph unicode="&#57351;" d="M195 115c-6 0-13 2-18 7l-106 112c-9 11-9 28 0 38 10 11 26 11 36 0l88-93 211 223c10 10 26 10 35 0 10-11 10-28 0-38l-228-242c-5-5-11-7-18-7z"/>
<glyph unicode="&#57352;" d="M291 256l86 86c9 10 9 25 0 35-10 9-25 9-35 0l-86-86-86 86c-10 9-25 9-35 0-9-10-9-25 0-35l86-86-86-86c-9-10-9-25 0-35 5-5 11-7 18-7 6 0 12 2 17 7l86 86 86-86c5-5 11-7 17-7 7 0 13 2 18 7 9 10 9 25 0 35z"/>
<glyph unicode="&#57353;" d="M288 306c0-5 2-9 6-12 3-3 7-6 12-6l141 0c9 0 17 8 17 17-1 9-11 20-16 24l-36 36 100 99-48 48-99-99-35 35c-8 8-16 16-25 16-9 0-17-7-17-16z m-240-306l100 102 35-35c8-7 15-15 24-15 10 0 17 7 17 16l0 138c0 5-2 9-6 12-3 4-7 6-12 6l-138 0c-9 0-17-7-17-16 0-10 11-20 16-24l35-35-102-101z"/>
<glyph unicode="&#57354;" d="M269 371l0 51c0 13-14 26-26 26l-217 0c-12 0-26-15-26-26l0-128c0-12 13-25 26-25l25 0 39-48c3-3 7-5 11-5 2 0 3 0 5 1 6 2 9 7 9 13l0 39 39 0 0-103c0-12 12-25 25-25l179 0 0-64c0-8 5-16 13-18 2-1 4-2 7-2 5 0 10 3 14 7l56 77 38 0c13 0 26 13 26 25l0 180c0 12-13 25-26 25z m-167-64c-12 0-19-6-19-19l-6 7c-13 12-13 12-26 12l-13 0 0 103 180 0 0-39-39 0c-9 0-25-11-25-25l0-39z m372-128l-39 0c-13 0-15-8-19-13l-19-25 0 13c0 12-13 25-26 25l-179 0 0 155 282-1z"/>
<glyph unicode="&#57355;" d="M509 469l-39 39c-2 3-6 4-9 4l0 0c-3 0-7-1-9-4l-228-228c-1-1-2-3-3-4l-25-64c-2-5-1-11 3-14 2-3 5-4 9-4 1 0 3 0 4 1l65 25c1 1 3 2 4 3l228 228c5 5 5 13 0 18z m-279-239l14 34 217 217 21-21-217-217z m154 39l0-192-269 0 0 360 205-2c11 0 26 8 26 19 0 12-15 20-26 20l-218 0c-11 0-25-15-25-26l0-384c0-13 14-26 25-26l295 0c11 0 25 15 25 26l0 205c0 11-7 25-19 25-11 0-19-14-19-25z"/>
<glyph unicode="&#57356;" d="M275 67c-13 0-24-12-24-26l0-26 256 0 0 26c0 14-11 26-24 26z m222-26l0-21 5 6-246 0 5-6 0 21c0 9 6 15 14 15l208 0c7 0 14-6 14-15z m-48 276c2 17-5 45-30 84-17 26-32 43-46 54-9 7-15 10-19 11-3 0-6-2-6-5-1-2 1-5 4-6 2 0 7-2 15-8 13-10 27-26 43-51 14-22 22-40 26-55 3-10 3-18 3-22 0-1 0-1 0-1-1-3 1-6 3-6 3-1 6 1 7 3 0 1 0 1 0 2z m-214 65c1-17 9-42 31-77 16-26 32-43 46-54 8-6 15-9 19-10 3-1 5 1 6 4 0 3-2 6-4 6-3 0-8 3-15 8-13 10-28 27-43 52-14 21-22 40-27 55-2 9-3 16-2 21l109 69c12 7 15 22 8 33-7 12-22 15-33 8l-112-71c-11-7-15-22-8-33 6-9 16-13 25-11z m119 102c4-7 2-15-4-19l-112-71c-6-4-15-2-19 4-4 7-2 15 4 19l112 71c7 4 15 2 19-4z m-25-234c-11-7-15-22-8-33 7-11 22-14 33-7l112 70c12 7 15 22 8 33-7 12-22 15-33 8z m136 58c4-6 2-15-4-19l-112-71c-6-4-15-2-19 5-4 6-2 15 4 19l112 70c7 4 15 2 19-4z m-433-104c-27-16-33-38-19-59 13-21 36-26 62-9l211 143c3 2 3 5 2 7l-27 48c-1 2-4 3-7 2z m220 125l27-48 2 7-212-144c-20-13-37-10-47 7-11 16-6 31 15 44l222 132z"/>
<glyph unicode="&#57357;" d="M85 337l213 0c12 0 21 11 21 24 0 13-9 23-21 23l-213 0c-11 0-21-10-21-23 0-13 10-24 21-24z m0-58c-11 0-21-10-21-23 0-13 10-24 21-24l149 0c12 0 21 11 21 24 0 13-9 23-21 23z m213-105l-213 0c-11 0-21-10-21-23 0-13 10-24 21-24l213 0c12 0 21 11 21 24 0 13-9 23-21 23z m139 236c-6 0-13-3-17-7l-131-130c-5-5-7-11-7-17 0-6 2-12 7-17l131-130c9-9 24-9 34 0 9 10 9 25 0 34l-114 113 114 113c9 9 9 24 0 34-5 4-11 7-17 7z"/>
<glyph unicode="&#57358;" d="M244 279c0-13 9-23 19-23 11 0 20 10 20 23l0 133c0 13-9 23-20 23-10 0-19-10-19-23z m104-135c-47-47-124-47-172 0-47 48-47 125 0 172 0 0 16 17 3 30-13 12-30-2-30-2-62-63-62-164 0-227 63-62 164-62 227 0 62 63 62 164 0 227 0 0-18 14-30 2-13-13 2-30 2-30 48-47 48-124 0-172z"/>
<glyph unicode="&#57359;" d="M164 86c48-17 44-16 65-8 6-5 18 1 31-5 14-6 17-7 17-7 29 7 28 22 45 31 13 8 12-4 45 14 6 3 17-10 24-10 8-1 16-9 26-4 5-16 30-19 32-19 18 0 19 29 7 48 9 9 12 26 20 35 23 7 35-6 35 39 0 26-27 22-44 8-11-1-4-8-14-8-3 0-5-5-23 16-17 21 1 2-4 19-6 16-6 36 0 48 9 14 0 32-6 40 4 18-15 16-21 36-5 0-4 16-22 27-7 29-23 44-31 49-21 0-21-6-32-20 0 0-21-6-21-6-9 6-16-3-24-3-8-6-17-14-17-14-11 6-11 20-26 20-22-10-16 6-29 0-10 2-28 8-36 12-24-7-27-31-38-23-28-8-18-22-39-42-2-19-20-26-18-43-23-9-1-17-19-24-3-8-5-11-18-6-18-21-26 0-29-14 0-19 28-16 24-51 17-26 58-20 28-50 18-33 33 0 43-33 9 10 12 20 22 20 23-27-9-4-5-22 0 0 11-23 29-29-27-24-3-26 23-21z m23 35c39-13 30-13 47-6 5-5 14 2 25-3 11-4 15 3 15 3 23 5 21 12 35 19 10 6 10-3 36 11 5 2 21 7 26 7 6-1 14-8 22-4 23-31 30-9 30 0 7 8-1 7 5 14 18 6-6 18-12 10-9-1-9 26-17 26-2 0 0 4-14 21-14 17 2 12-2 25-4 13 2 23 6 32 8 11 0 25-4 32 3 14-12 12-17 28-4 0-3 13-17 21-5 23-11 29-17 33-10-14-12-8-25-14 0 0-18-8-18-8-7 5-15-6-22-6-7-11-22-11-22-11-22 12-11 19-23 19-17-8-19 10-29 6-8 1-17 3-23 6-19-6-17-20-26-14-22-6-10-16-27-32-1-15-15-20-14-34-18-7 0-13-15-18-2-7-5-21-15-16-14-17-19 1-22-11 11-8 16-3 16-25 14-2 50-14 26-38 10-13 7 3 15-10 8 8 17 10 25 10 18-21 15-18 19-32 0 0 6-17 6-28 16 0 7-17 27-13z m-1 110c-13 0-20 10-20 19 0 9 7 19 20 19l45 0 0 45c0 13 6 19 19 19 13 0 19-6 19-19l0-45 45 0c13 0 19-10 19-19 0-10-6-19-19-19l-45 0 0-45c0-13-6-20-19-20-13 0-19 7-19 20l0 45z"/>
<glyph unicode="&#57360;" d="M276 426c-19 0-35 16-35 36 0 19 16 35 35 35 20 0 36-16 36-35 0-20-16-36-36-36z m0 82c-25 0-46-21-46-46 0-26 21-47 46-47 26 0 47 21 47 47 0 25-21 46-47 46z m144-257c-20 0-36 16-36 36 0 20 16 36 36 36 20 0 36-16 36-36 0-20-16-36-36-36z m0 82c-26 0-46-21-46-46 0-26 20-46 46-46 25 0 46 20 46 46 0 25-21 46-46 46z m-318-62c-19 0-35 16-35 36 0 20 16 36 35 36 20 0 36-16 36-36 0-20-16-36-36-36z m0 82c-25 0-46-20-46-46 0-25 21-46 46-46 26 0 46 21 46 46 0 26-20 46-46 46z m72-286c-20 0-36 16-36 35 0 20 16 36 36 36 20 0 36-16 36-36 0-19-16-35-36-35z m0 81c-25 0-46-20-46-46 0-25 21-46 46-46 26 0 46 21 46 46 0 26-20 46-46 46z m215-122c-20 0-36 16-36 35 0 20 16 36 36 36 20 0 36-16 36-36 0-19-16-35-36-35z m0 82c-25 0-46-21-46-47 0-25 21-46 46-46 26 0 46 21 46 46 0 26-20 47-46 47z m-123 81c-31 0-56 26-56 57 0 31 25 56 56 56 31 0 57-25 57-56 0-31-26-57-57-57z m0 123c-37 0-66-29-66-66 0-37 29-67 66-67 37 0 67 30 67 67 0 37-30 66-67 66z m16 107l-11 1-10-112 10-1z m-11-112l11 112c0 7-10 8-11 1l-10-112c0-7 10-8 10-1z m-65-50l3 9-64 25-4-9z m-65 25l65-25c6-3 10 7 3 9l-64 25c-6 3-10-7-4-9z m183-16l2-10 57 15-3 10z m56 15l-56-15c-7-1-4-11 2-10l57 15c6 2 3 12-3 10z m-15-182l8 6-69 92-9-6z m-70 92l70-92c4-5 12 1 8 6l-69 92c-5 5-13-1-9-6z m-103-51l9-5 36 56-8 6z m0 0c-3-5 5-11 9-5l36 56c4 6-5 11-8 6z"/>
<glyph unicode="&#57361;" d="M437 356c-18 40-56 66-97 66-42 0-69-18-84-38-16 20-43 38-85 38-41 0-79-26-97-66-19-42-11-88 22-124 78-88 148-150 148-150 4-3 8-5 12-5 4 0 8 2 11 5 1 0 70 62 148 150 33 36 41 82 22 124z"/>
<glyph unicode="&#57362;" d="M439 283l-58 0 0 58c0 4-4 8-8 8l-16 0c-5 0-8-4-8-8l0-58-58 0c-5 0-8-4-8-8l0-17c0-4 3-8 8-8l58 0 0-57c0-5 3-8 8-8l16 0c4 0 8 3 8 8l0 57 58 0c4 0 8 4 8 8l0 17c0 4-4 8-8 8z m-194-51c-12 9-23 21-24 25 0 7 1 11 17 23 20 16 32 37 32 59 0 21-7 38-17 51l8 0c2 0 3 1 5 2l22 16c3 2 4 6 3 9-1 3-4 5-7 5l-102 0c-11 0-22-2-33-5-37-13-63-45-63-77 0-46 35-81 83-82-1-3-1-7-1-10 0-7 1-14 5-21l-1 0c-46 0-86-22-102-55-4-8-6-17-6-26 0-8 2-16 6-24 10-17 31-31 59-38 15-3 31-5 47-5 15 0 28 2 41 5 41 12 67 42 67 76 0 33-11 52-39 72z m-128-75c0 24 30 45 64 45l1 0c8 0 15-1 22-3 3-2 5-4 7-5 16-11 27-18 30-30 0-3 1-6 1-8 0-30-23-45-66-45-33 0-59 20-59 46z m31 226c5 6 12 9 20 9l1 0c23-1 44-26 48-56 2-17-1-32-10-42-5-6-12-9-20-9 0 0 0 0 0 0l-1 0c-22 0-44 26-48 56-2 17 2 32 10 42z"/>
<glyph unicode="&#57363;" d="M322 232c-13 9-24 21-24 25 0 7 1 11 17 23 20 16 31 37 31 59 0 21-6 38-16 51l8 0c2 0 3 1 5 2l22 16c3 2 4 6 3 9-1 3-4 5-7 5l-102 0c-11 0-22-2-33-5-37-13-63-45-63-77 0-46 35-81 83-82-1-3-2-7-2-10 0-7 2-14 6-21l-2 0c-45 0-86-22-101-55-4-8-6-17-6-26 0-8 2-16 6-24 10-17 31-31 59-38 15-3 30-5 47-5 14 0 28 2 41 5 40 12 66 42 66 76 0 33-10 52-38 72z m-129-75c0 24 31 45 65 45l1 0c8 0 15-1 22-3 2-2 5-4 7-5 16-11 26-18 29-30 1-3 1-6 1-8 0-30-22-45-66-45-33 0-59 20-59 46z m32 226c5 6 12 9 20 9l1 0c23-1 44-26 48-56 2-17-2-32-10-42-5-6-12-9-21-9 0 0 0 0 0 0l0 0c-22 0-44 26-48 56-2 17 1 32 10 42z"/>
<glyph unicode="&#57364;" d="M29 56c-13 0-24-11-24-25l0-26 502 0 0 26c0 14-11 25-24 25z m468-25l0-21 5 5-492 0 5-5 0 21c0 8 7 15 14 15l454 0c7 0 14-7 14-15z m-437 66c-14 0-24-11-24-25l0-26 440 0 0 26c0 14-10 25-24 25z m406-25l0-21 5 5-430 0 5-5 0 21c0 8 6 15 14 15l392 0c8 0 14-7 14-15z m-440 297c0-14 11-26 24-26l412 0c13 0 24 12 24 26l0 10c0 3-2 5-5 5l-450 0c-3 0-5-2-5-5z m5 5l450 0-5 5 0-10c0-9-6-16-14-16l-412 0c-8 0-14 7-14 16l0 10z m71-287c3 0 6 2 6 5l0 256c0 3-3 5-6 5l-41 0c-2 0-5-2-5-5l0-256c0-3 3-5 5-5z m-35 5l0 256-6-5 41 0-5 5 0-256 5 5-41 0z m384-5c2 0 5 2 5 5l0 256c0 3-3 5-5 5l-41 0c-3 0-6-2-6-5l0-256c0-3 3-5 6-5z m-36 5l0 256-5-5 41 0-6 5 0-256 6 5-41 0z m-77-5c3 0 5 2 5 5l0 256c0 3-2 5-5 5l-41 0c-3 0-5-2-5-5l0-256c0-3 2-5 5-5z m-36 5l0 256-5-5 41 0-5 5 0-256 5 5-41 0z m-87-5c3 0 5 2 5 5l0 256c0 3-2 5-5 5l-41 0c-3 0-5-2-5-5l0-256c0-3 2-5 5-5z m-36 5l0 256-5-5 41 0-5 5 0-256 5 5-41 0z m-169 292l5-5 0 17-3-4 246 105-4 0 246-105-3 4 0-17 5 5z m497-5l0 17c0 2-1 4-3 5l-246 105c-1 1-3 1-4 0l-246-105c-2-1-3-3-3-5l0-17c0-3 2-5 5-5l492 0c3 0 5 2 5 5z"/>
<glyph unicode="&#57365;" d="M445 118l-174 308c-3 6-9 9-15 9-6 0-12-3-15-9l-175-310c-3-5-3-12 0-18 3-5 9-8 15-8l350 0c9 0 17 8 17 17 0 4-1 8-3 11z m-330 10l141 256 141-256-282 0z m122 175l0-80c0-10 8-18 19-18 11 0 19 8 19 18l0 80c0 10-8 18-19 18-11 0-19-8-19-18z m19-111c-7 0-13-3-18-7-5-5-8-12-8-19 0-6 3-13 8-18 5-4 11-7 18-7 7 0 13 3 18 7 5 5 8 12 8 18 0 7-3 14-8 19-5 4-11 7-18 7z"/>
<glyph unicode="&#57366;" d="M437 356c-18 40-56 66-97 66-42 0-69-18-84-38-16 20-43 38-85 38-41 0-79-26-97-66-19-42-11-88 22-124 78-88 148-150 148-150 4-3 8-5 12-5 4 0 8 2 11 5 1 0 70 62 148 150 33 36 41 82 22 124z m-181-241c-22 21-74 71-131 136-23 26-29 58-16 87 12 28 37 52 64 52 53 0 66-46 67-50 2-8 8-13 16-13 8 0 14 5 16 13 0 1 13 50 67 50 27 0 52-24 64-52 13-29 7-61-16-87-57-65-109-115-131-136z"/>
<glyph unicode="&#57367;" d="M294 320l0 38c0 17 4 26 31 26l33 0 0 64-55 0c-69 0-92-31-92-85l0-43-45 0 0-64 45 0 0-192 83 0 0 192 57 0 7 64z"/>
<glyph unicode="&#57368;" d="M512 494c0 5-2 9-6 12-3 3-7 6-12 6l-141 0c-9 0-16-8-16-17 0-9 10-20 15-24l36-36-100-99 48-48 99 99 35-35c8-8 16-16 25-16 10 0 17 7 17 16z m-336-270l-100-102-35 35c-8 7-15 15-24 15-10 0-17-7-17-16l0-138c0-5 2-9 6-12 3-4 7-6 12-6l138 0c9 0 17 7 17 16 0 10-11 20-16 24l-35 35 102 101z"/>
<glyph unicode="&#57369;" d="M422 384c0 0-332 0-332 0-13 0-26-13-26-26 0-6 0-217 0-217 0-13 13-26 26-26l332 0c13 0 26 13 26 26l0 217c0 13-12 26-26 26z m-51-38l-115-103-115 103z m-269-192l0 179 141-123c3-2 10-5 13-5 3 0 10 3 13 5l141 123 0-179z"/>
<glyph unicode="&#57370;" d="M397 269l0-192-269 0 0 360 115-2c12 0 26 8 26 19 0 12-14 20-26 20l-128 0c-11 0-25-15-25-26l0-384c0-13 14-26 25-26l295 0c11 0 25 15 25 26l0 205c0 11-8 19-19 19-11 0-19-8-19-19z m-64 103l-51 0c-13 0-26 9-26 19 0 9 13 19 26 19l51 0 0 51c0 13 6 25 19 25 13 0 19-12 19-25l0-51 51 0c13 0 26-10 26-19 0-10-13-19-26-19l-51 0 0-52c0-13-6-26-19-26-13 0-19 13-19 26z"/>
<glyph unicode="&#57371;" d="M29 435c-13 0-24-11-24-24l0-341c0-13 11-24 24-24l176 0-5 3c1-1 2-3 4-6 3-4 6-7 10-11 12-10 26-17 42-17 16 0 30 7 42 17 4 4 7 7 10 11 2 3 3 5 4 6l-5-3 176 0c13 0 24 11 24 24l0 341c0 13-11 24-24 24l-32 0 0-10 32 0c7 0 14-6 14-14l0-341c0-7-7-14-14-14l-176 0c-2 0-3-1-4-2-1-1-2-3-3-5-3-3-6-6-9-9-10-9-21-14-35-14-14 0-25 5-35 14-3 3-6 6-9 9-1 2-2 4-3 5-1 1-2 2-4 2l-176 0c-7 0-14 7-14 14l0 341c0 8 7 14 14 14l32 0 0 10z m222-353c0-5 5-7 9-4 1 1 3 3 8 6 7 5 17 9 30 14 36 12 86 20 153 20 2 0 5 2 5 5l0 369c0 2-3 5-5 5-68 0-120-12-158-32-13-7-24-14-32-22-5-4-8-8-9-10-1-1-1-2-1-3z m9 345c1 2 4 5 8 9 8 7 18 14 30 20 36 19 86 30 153 30l-6 6 0-369 6 5c-68 0-119-8-157-21-23-8-36-16-42-21l9-4 0 348z m-9-345l9 4c-6 5-19 13-42 21-38 13-89 21-157 21l6-5 0 369-6-6c67 0 117-11 153-30 12-6 22-13 30-20 4-4 7-7 8-9l-1 3z m9 351c-1 2-4 6-9 10-8 8-19 15-32 22-38 20-90 32-158 32-2 0-5-3-5-5l0-369c0-3 3-5 5-5 67 0 117-8 153-20 13-5 23-9 30-14 5-3 7-5 8-6 4-3 9-1 9 4l0 348c0 1 0 2-1 3z"/>
<glyph unicode="&#57372;" d="M384 269l0-192-269 0 0 360 115-2c12 0 26 8 26 19 0 12-14 20-26 20l-128 0c-11 0-25-15-25-26l0-384c0-13 14-26 25-26l295 0c11 0 25 15 25 26l0 205c0 11-7 19-19 19-11 0-19-8-19-19z m-91 18l-70 77c-7 8-7 19 0 27 6 7 17 7 23 0l59-65 140 155c7 7 18 7 24 0 7-7 7-19 0-26l-152-168c-3-4-8-6-12-6-4 0-9 2-12 6z"/>
<glyph unicode="&#57373;" d="M454 250c20-1 17-25 17-25-8-57-38-108-84-143-38-28-83-44-131-44-69 0-132 32-174 87-72 96-53 233 43 305 38 28 83 44 131 44 40 0 80-11 114-32 0 0 14-12 8-26-7-14-28-7-28-7-28 17-60 26-94 26-39 0-76-12-108-36-79-59-95-172-35-251 34-45 86-71 143-71 39 0 76 12 108 36 38 29 63 70 69 118 0 0 2 20 21 19z m-178-84c-6 0-12 3-17 8l-98 101c-10 10-10 25 0 35 9 9 24 9 33 0l82-85 196 203c9 10 24 10 33 0 9-9 9-25 0-34l-213-220c-4-5-10-8-16-8z"/>
<glyph unicode="&#57374;" d="M205 358l0 52c0 12-13 25-26 25-12 0-25-13-25-25l0-52c0-12 13-25 25-25 13 0 26 13 26 25z m164 0l2 52c0 12-12 25-25 25-12 0-26-13-26-25l0-52c0-13 13-25 26-25 12 0 23 12 23 25z m34 52c-10 0-19-10-19-20 0-9 9-19 19-19l32 0 0-77-345 0 0 77 32 0c10 0 19 10 19 19 0 10-9 20-19 20l-45 0c-13 0-26-13-26-26l0-282c0-12 13-25 26-25l371 0c13 0 26 13 26 25l0 282c0 13-13 26-26 26z m-313-295l0 141 345 0 0-141z m204 256c10 0 13 10 13 19 0 10-3 20-13 20l-62 0c-10 0-14-10-14-20 0-9 4-19 14-19z"/>
<glyph unicode="&#57375;" d="M453 95l-79 79c22 30 36 67 36 108 0 99-81 179-180 179-99 0-179-80-179-179 0-99 80-180 179-180 41 0 78 14 108 36l79-79c5-5 10-8 18-8 14 0 26 12 26 26 0 5-2 11-8 18z m-351 187c0 70 58 128 128 128 71 0 128-58 128-128 0-71-57-128-128-128-70 0-128 57-128 128z"/>
<glyph unicode="&#57376;" d="M371 333l0-243-217 0 0 243c0 10-9 19-20 19-10 0-19-9-19-19l0-256c0-13 13-26 26-26l243 0c10 0 26 15 26 26l0 256c0 10-9 19-20 19-10 0-19-9-19-19z m-51 77l0 38c0 7-6 13-13 13l-89 0c-7 0-13-6-13-13l0-38-114 0c-10 0-21-9-21-20 0-10 11-19 21-19l345 0c10 0 18 9 18 19 0 11-8 20-18 20z m-90 25l64 0 0-25-64 0z m-12-307l0 192c0 7-7 13-13 13-7 0-13-7-13-14l0-191c0-7 6-13 13-13 6 0 13 13 13 13z m57 0l0 192c0 7-6 13-13 13-6 0-12-7-12-14l0-191c0-7 6-13 12-13 7 0 13 13 13 13z m58 0l0 192c0 7-6 13-13 13-7 0-13-7-13-14l0-191c0-7 7-13 13-13 6 0 13 13 13 13z"/>
<glyph unicode="&#57377;" d="M405 361c16 10 28 25 34 43-15-9-32-15-50-19-14 15-35 25-58 25-43 0-79-35-79-78 0-6 1-12 2-18-66 4-124 34-163 81-7-11-11-24-11-39 0-27 14-50 35-64-13 0-25 4-35 9 0 0 0 0 0-1 0-37 27-68 63-76-7-1-14-2-21-2-5 0-10 0-15 1 10-31 40-53 74-54-27-21-61-33-98-33-6 0-13 0-19 1 35-22 77-35 121-35 146 0 226 118 226 221 0 3 0 7 0 10 15 11 28 25 39 40-14-6-29-10-45-12z"/>
<glyph unicode="&#57378;" d="M410 218l0-116-308 0 0 116c0 12-7 25-19 25-12 0-19-13-19-25l0-128c0-13 13-26 26-26l332 0c13 0 25 13 25 26l0 128c0 12-6 25-18 25-12 0-19-13-19-25z m-180 179l0-194c0-13 13-23 26-23 13 0 26 10 26 23l0 194 50-52c5-5 10-7 16-7 6 0 12 2 16 7 9 9 9 23 0 32l-92 91c-4 4-10 7-16 7-6 0-12-3-16-7l-92-91c-9-9-9-23 0-32 8-9 23-9 32 0z"/>
<glyph unicode="&#57379;" d="M256 205c64 0 115 51 115 115 0 64-51 115-115 115-64 0-115-51-115-115 0-64 51-115 115-115z m0 192c42 0 77-35 77-77 0-42-35-77-77-77-42 0-77 35-77 77 0 42 35 77 77 77z m52-199c-6 2-12 0-16-3l-36-31-36 31c-4 3-10 5-16 3-23-8-140-47-140-104 0-10 8-17 17-17l350 0c9 0 17 7 17 17 0 57-117 96-140 104z m-201-88c19 19 62 40 98 53l40-33c6-6 16-6 22 0l40 33c36-13 79-34 98-53z"/>
<glyph unicode="&#57380;" d="M509 268c-4 5-95 142-253 142-158 0-249-137-253-142-4-7-4-17 0-24 4-5 95-142 253-142 158 0 249 137 253 142 4 7 4 17 0 24z m-253-125c-113 0-190 82-215 113 25 31 101 113 215 113 113 0 190-82 215-113-25-31-101-113-215-113z m0 205c-20 0-39-6-55-18-41-31-49-89-19-129 18-24 45-37 74-37 20 0 39 6 55 18 20 15 33 37 36 61 4 24-3 49-17 68-18 24-45 37-74 37z m51-99c-2-14-9-26-20-34-9-7-20-10-31-10-16 0-31 7-41 20-17 23-12 55 10 72 9 7 20 10 31 10 16 0 31-7 41-20 8-11 12-25 10-38z"/>
</font>
</defs>
</svg>
